<svg width="231" height="48" xmlns="http://www.w3.org/2000/svg"><g fill="none" fill-rule="evenodd"><path fill="#E57133" d="M134.803.828h18.919l-8.821 18.919h-18.919L134.803.828"/><path d="M16.137 33.144c-.964.608-1.679 1.037-3.43 1.037-3.216 0-4.681-2.216-4.681-5.074 0-3.252 1.929-4.968 4.181-4.968 1.929 0 2.644.787 3.18 1.323l.393-.108c.179-2.179.25-2.858.572-4.895l-.179-.214c-1.644-.572-2.859-1.001-5.003-1.001-2.751 0-5.038.679-6.539 1.644C2.058 22.531.558 25.712.558 29.321c0 4.038 1.965 9.934 10.434 9.934 2.001 0 3.359-.394 5.002-.858l.179-.214.215-4.86-.251-.179m21.217-3.894c0-4.289-1.215-6.29-2.465-7.505-1.894-1.858-4.61-2.465-7.29-2.465-1.608 0-5.395.178-7.754 2.93-1.679 1.965-2.073 4.645-2.073 7.218 0 2.609.394 7.361 5.146 9.076 1.501.572 3.466.751 4.717.751 3.216 0 6.289-.893 8.147-3.502 1.429-2.073 1.572-5.217 1.572-6.503Zm-7.396-.322c0 .714 0 3.43-.608 4.574-.393.821-1 1.322-1.787 1.322-.214 0-1.608 0-2.108-2.037-.25-1.001-.286-2.037-.286-3.18 0-3.216.251-5.932 2.466-5.932 1.751 0 2.323 2.001 2.323 5.253Zm17.438 9.648c-.214-4.681-.286-6.897-.286-11.006 0-2.68.072-14.543.072-16.938l-.286-.321-7.397 1.286-.214.215c.357 3.751.393 3.966.393 16.651 0 4.503-.072 6.432-.179 10.22l.25.25c3.109-.143 4.038-.143 7.397-.107l.25-.25m3.182-18.045c.25 2.572.393 4.073.393 8.254 0 3.287-.107 6.575-.214 9.862l.25.25c3.109-.107 4.073-.107 7.254-.071l.25-.286-.107-6.253c-.036-.572-.036-1.18-.036-1.751 0-2.216 0-4.395 2.608-4.395.894 0 1.323.285 1.859.643l.357-.107c.572-3.359.715-4.074 1.501-7.361l-.25-.215a7.441 7.441 0 0 0-1.251-.107c-1.68 0-2.966.786-3.931 2.251-.357.536-.607 1.108-.857 1.644l.071-3.573-.25-.286c-3.466.75-4.288.857-7.433 1.25l-.214.251m27.151 18.152.25.25c3.109-.107 3.931-.107 6.718-.107l.25-.25c-.107-2.573-.143-3.574-.143-7.361 0-3.788.036-7.612.072-11.399l-.286-.358c-3.073.215-3.823.251-6.932.322l-.215.25.215 13.079c-.679.357-1.358.714-2.108.714-2.001 0-2.001-2.108-2.001-4.395 0-.929.071-5.003.071-5.825 0-1.286-.036-2.537-.036-3.823l-.286-.322-6.825.322-.25.214c.179 3.538.179 4.539.143 8.398v1.536c-.036 3.788-.036 5.753 1.251 7.361.75.929 2.287 2.001 4.323 2.001 1.358 0 3.109-.5 4.467-1.322.465-.25.929-.607 1.358-.929l-.036 1.644m12.726 9.183c3.251-.107 4.002-.107 6.432-.107l.286-.214c.929-3.931 1.286-5.182 2.858-10.149l1.823-5.431 4.288-12.149-.215-.25-5.717.107-.215.214c-1.072 4.217-1.322 5.253-2.822 10.399-1.358-4.86-1.573-5.825-2.68-10.613l-.286-.215c-3.359.251-4.145.286-7.647.322l-.143.25c.965 2.287 1.036 2.466 2.251 5.896.572 1.644 1.215 3.324 1.787 4.967.965 2.716 1.608 4.681 2.965 8.826-1.393 3.752-1.751 4.574-3.144 7.861l.179.286m28.322-23.405c.536 0 1.072.036 1.644.036l.286-.286.393-4.288-.286-.25c-1.608.143-2.108.143-3.394.143l.107-6.682-.322-.215c-2.966.893-3.895 1.144-6.646 1.823l-.179.25v4.681h-2.037l-.25.25-.214 4.359.214.215 2.287-.072-.071 3.145c0 1.608-.036 3.251-.036 4.86 0 1.679 0 2.537.286 3.501.679 2.216 2.286 3.324 5.824 3.324 1.715 0 2.895-.215 4.431-.536l.25-.25.358-4.396-.286-.143c-.572.215-1.179.393-1.823.393-.679 0-1.357-.285-1.679-.857-.322-.608-.322-2.001-.322-2.716l.108-6.253 1.357-.036" fill="#1A1919"/></g></svg>